<svg width="16" height="16" viewBox="0 0 16 16" fill="none" xmlns="http://www.w3.org/2000/svg">
<path fill-rule="evenodd" clip-rule="evenodd" d="M7.99992 5.33337C8.36811 5.33337 8.66659 5.63185 8.66659 6.00004V7.33337C8.66659 7.70156 8.36811 8.00004 7.99992 8.00004C7.63173 8.00004 7.33325 7.70156 7.33325 7.33337V6.00004C7.33325 5.63185 7.63173 5.33337 7.99992 5.33337ZM7.99992 9.33337C8.36811 9.33337 8.66659 9.63185 8.66659 10V10.0067C8.66659 10.3749 8.36811 10.6734 7.99992 10.6734C7.63173 10.6734 7.33325 10.3749 7.33325 10.0067V10C7.33325 9.63185 7.63173 9.33337 7.99992 9.33337Z" fill="#C2410C"/>
<path fill-rule="evenodd" clip-rule="evenodd" d="M6.98436 1.58708C7.29212 1.40563 7.64286 1.30994 8.00012 1.30994C8.35738 1.30994 8.70812 1.40563 9.01587 1.58708C9.32217 1.76766 9.57476 2.02663 9.74766 2.33726L14.4123 10.5003C14.427 10.5261 14.44 10.5528 14.4511 10.5802C14.5712 10.8758 14.6188 11.1958 14.59 11.5135C14.5611 11.8313 14.4567 12.1375 14.2855 12.4066C14.1142 12.6758 13.881 12.9001 13.6054 13.0607C13.3298 13.2214 13.0197 13.3138 12.7011 13.3302C12.6897 13.3308 12.6782 13.3311 12.6668 13.3311H3.38012C3.37246 13.3311 3.36484 13.331 3.35725 13.3307C3.33805 13.3314 3.31867 13.3312 3.29913 13.3302C2.98052 13.3138 2.67047 13.2214 2.39485 13.0607C2.11924 12.9001 1.88606 12.6758 1.71478 12.4066C1.5435 12.1375 1.43909 11.8313 1.41028 11.5135C1.38146 11.1958 1.42907 10.8758 1.54913 10.5802C1.56028 10.5528 1.57325 10.5261 1.58796 10.5003L6.25257 2.33726C6.42547 2.02663 6.67806 1.76766 6.98436 1.58708ZM3.35853 11.9981C3.36569 11.9979 3.37289 11.9978 3.38012 11.9978H12.6467C12.7479 11.9904 12.8461 11.96 12.9339 11.9088C13.0258 11.8553 13.1035 11.7805 13.1606 11.6908C13.2177 11.6011 13.2525 11.499 13.2621 11.3931C13.2706 11.2995 13.2591 11.2052 13.2287 11.1165L8.58339 2.98722C8.52574 2.88302 8.44129 2.79613 8.3387 2.73565C8.23612 2.67517 8.1192 2.64327 8.00012 2.64327C7.88103 2.64327 7.76412 2.67517 7.66153 2.73565C7.55895 2.79613 7.47444 2.88299 7.41678 2.98719L7.41233 2.99523L2.77151 11.1166C2.74109 11.2052 2.72967 11.2995 2.73816 11.3931C2.74776 11.499 2.78257 11.6011 2.83966 11.6908C2.89675 11.7805 2.97448 11.8553 3.06635 11.9088C3.15555 11.9608 3.25558 11.9914 3.35853 11.9981Z" fill="#C2410C"/>
</svg>
