<svg width="14" height="14" viewBox="0 0 14 14" fill="none" xmlns="http://www.w3.org/2000/svg">
<path fill-rule="evenodd" clip-rule="evenodd" d="M3.67118 2.5063C3.89899 2.2785 4.26833 2.2785 4.49614 2.5063L6.82947 4.83964C7.05728 5.06744 7.05728 5.43679 6.82947 5.6646C6.60167 5.8924 6.23232 5.8924 6.00451 5.6646L4.66699 4.32707V11.0855C4.66699 11.4076 4.40582 11.6688 4.08366 11.6688C3.76149 11.6688 3.50033 11.4076 3.50033 11.0855V4.32707L2.1628 5.6646C1.935 5.8924 1.56565 5.8924 1.33785 5.6646C1.11004 5.43679 1.11004 5.06744 1.33785 4.83964L3.67118 2.5063Z" fill="#4B5563"/>
<path fill-rule="evenodd" clip-rule="evenodd" d="M9.91667 2.33545C10.2388 2.33545 10.5 2.59662 10.5 2.91878V9.67716L11.8375 8.33964C12.0653 8.11183 12.4347 8.11183 12.6625 8.33964C12.8903 8.56744 12.8903 8.93679 12.6625 9.1646L10.3291 11.4979C10.1013 11.7257 9.73199 11.7257 9.50419 11.4979L7.17085 9.1646C6.94305 8.93679 6.94305 8.56744 7.17085 8.33964C7.39866 8.11183 7.76801 8.11183 7.99581 8.33964L9.33333 9.67716V2.91878C9.33333 2.59662 9.5945 2.33545 9.91667 2.33545Z" fill="#4B5563"/>
</svg>
