<svg width="20" height="20" viewBox="0 0 20 20" fill="none" xmlns="http://www.w3.org/2000/svg">
<path fill-rule="evenodd" clip-rule="evenodd" d="M18.9226 5.2503C19.248 5.57574 19.248 6.10338 18.9226 6.42881L10.5893 14.7621C10.2638 15.0876 9.73618 15.0876 9.41074 14.7621L5.24408 10.5955C4.91864 10.27 4.91864 9.74241 5.24408 9.41697C5.56951 9.09153 6.09715 9.09153 6.42259 9.41697L10 12.9944L17.7441 5.2503C18.0695 4.92487 18.5972 4.92487 18.9226 5.2503Z" fill="#0D852B"/>
<path fill-rule="evenodd" clip-rule="evenodd" d="M14.7556 5.2503C15.081 5.57574 15.081 6.10338 14.7556 6.42881L10.5889 10.5955C10.2635 10.9209 9.73586 10.9209 9.41042 10.5955C9.08498 10.27 9.08498 9.74241 9.41042 9.41697L13.5771 5.2503C13.9025 4.92487 14.4302 4.92487 14.7556 5.2503ZM1.07709 9.41697C1.40252 9.09153 1.93016 9.09153 2.2556 9.41697L6.42226 13.5836C6.7477 13.9091 6.7477 14.4367 6.42226 14.7621C6.09683 15.0876 5.56919 15.0876 5.24375 14.7621L1.07709 10.5955C0.751649 10.27 0.751649 9.74241 1.07709 9.41697Z" fill="#0D852B"/>
</svg>
